HIERARCHY
ROOT Hips
{
 OFFSET 0.000000 0.000000 0.000000
 CHANNELS 6 Xposition Yposition Zposition Yrotation Xrotation Zrotation
 JOINT Chest
 {
  OFFSET 0.000000 11.395451 -0.039534
  CHANNELS 3 Yrotation Xrotation Zrotation
  JOINT Chest2
  {
   OFFSET 0.000000 9.398669 0.071813
   CHANNELS 3 Yrotation Xrotation Zrotation
   JOINT Chest3
   {
    OFFSET 0.000000 8.489801 0.000000
    CHANNELS 3 Yrotation Xrotation Zrotation
    JOINT Chest4
    {
     OFFSET 0.000000 8.489801 0.000000
     CHANNELS 3 Yrotation Xrotation Zrotation
     JOINT Neck
     {
      OFFSET 0.000000 12.404889 0.000000
      CHANNELS 3 Yrotation Xrotation Zrotation
      JOINT Head
      {
       OFFSET 0.000000 8.903270 0.092239
       CHANNELS 3 Yrotation Xrotation Zrotation
       End Site
       {
        OFFSET 0.000000 17.592497 0.007158
       }
      }
     }
     JOINT RightCollar
     {
      OFFSET -3.196775 6.966722 0.000000
      CHANNELS 3 Yrotation Xrotation Zrotation
      JOINT RightShoulder
      {
       OFFSET -15.955896 0.000000 0.000000
       CHANNELS 3 Yrotation Xrotation Zrotation
       JOINT RightElbow
       {
        OFFSET -24.792472 0.000000 0.000000
        CHANNELS 3 Yrotation Xrotation Zrotation
        JOINT RightWrist
        {
         OFFSET -20.900115 0.000000 0.025002
         CHANNELS 3 Yrotation Xrotation Zrotation
         End Site
         {
          OFFSET -16.056692 0.000000 0.000000
         }
        }
       }
      }
     }
     JOINT LeftCollar
     {
      OFFSET 3.196775 6.966722 0.000000
      CHANNELS 3 Yrotation Xrotation Zrotation
      JOINT LeftShoulder
      {
       OFFSET 15.955896 0.000000 0.000000
       CHANNELS 3 Yrotation Xrotation Zrotation
       JOINT LeftElbow
       {
        OFFSET 24.792472 0.000000 0.000000
        CHANNELS 3 Yrotation Xrotation Zrotation
        JOINT LeftWrist
        {
         OFFSET 20.900115 0.000000 0.025002
         CHANNELS 3 Yrotation Xrotation Zrotation
         End Site
         {
          OFFSET 16.056692 0.000000 0.000000
         }
        }
       }
      }
     }
    }
   }
  }
 }
 JOINT RightHip
 {
  OFFSET -9.568995 0.193718 0.019767
  CHANNELS 3 Yrotation Xrotation Zrotation
  JOINT RightKnee
  {
   OFFSET 0.000000 -56.649296 0.015402
   CHANNELS 3 Yrotation Xrotation Zrotation
   JOINT RightAnkle
   {
    OFFSET 0.000000 -41.365147 0.021264
    CHANNELS 3 Yrotation Xrotation Zrotation
    JOINT RightToe
    {
     OFFSET 0.000000 -7.465940 17.672538
     CHANNELS 3 Yrotation Xrotation Zrotation
     End Site
     {
      OFFSET 0.000000 -1.736315 7.837145
     }
    }
   }
  }
 }
 JOINT LeftHip
 {
  OFFSET 9.568995 0.193718 0.019767
  CHANNELS 3 Yrotation Xrotation Zrotation
  JOINT LeftKnee
  {
   OFFSET 0.000000 -56.649296 0.015402
   CHANNELS 3 Yrotation Xrotation Zrotation
   JOINT LeftAnkle
   {
    OFFSET 0.000000 -41.365147 0.021264
    CHANNELS 3 Yrotation Xrotation Zrotation
    JOINT LeftToe
    {
     OFFSET 0.000000 -7.465940 17.672538
     CHANNELS 3 Yrotation Xrotation Zrotation
     End Site
     {
      OFFSET 0.000000 -1.736315 7.837145
     }
    }
   }
  }
 }
}
MOTION
Frames: 11
Frame Time: 0.016667
276.152135 105.872203 249.380711 154.809918 0.350513 -1.297231 3.523385 5.757990 1.767930 1.541938 2.572440 0.740937 1.541938 2.572440 0.740937 1.153141 1.931217 0.549119 4.209962 11.560947 -1.933770 8.913178 -14.430674 -5.533677 3.046554 1.206383 5.869340 16.266584 -19.136399 40.476561 41.692646 -43.179242 27.676498 -11.473596 -20.718673 5.362865 4.211044 4.811945 -5.515678 6.725173 -19.932218 -52.417347 -19.434943 -58.980257 -64.161582 11.756779 -17.351774 12.949442 -12.603235 -2.443078 0.133923 -8.055526 15.759915 -2.171188 3.861811 -14.192817 8.169337 -0.000000 -0.000000 -0.000000 13.502575 -23.966953 -3.869201 2.911354 28.187158 -2.052722 10.345435 -8.153793 -2.142974 0.000000 0.000000 0.000000
276.903355 105.794620 248.543242 155.506400 0.476821 -1.487524 3.699544 5.721496 1.883056 1.618864 2.557787 0.790149 1.618859 2.557779 0.790147 1.210633 1.920442 0.585736 4.251662 11.487943 -1.940228 9.002864 -14.561431 -5.571451 3.106388 1.223083 5.886673 16.795232 -19.312240 40.140272 41.271393 -43.218441 27.865576 -11.576696 -20.641883 5.362975 4.269157 4.759138 -5.567928 7.070155 -19.656416 -52.457281 -19.369305 -59.049971 -64.505053 11.655225 -17.376648 13.160541 -11.760841 -1.766071 0.313746 -9.261123 15.697465 -2.146981 3.642898 -14.692415 8.571087 -0.000000 -0.000000 0.000000 15.022436 -22.932974 -4.858715 4.275814 23.240232 -1.599621 10.715531 -8.125653 -2.433217 0.000000 0.000000 0.000000
277.641314 105.688700 247.657256 156.175865 0.561310 -1.732966 3.865873 5.691836 2.017669 1.691188 2.546398 0.848101 1.691188 2.546394 0.848099 1.264649 1.912162 0.628923 4.290492 11.412080 -1.924536 9.077844 -14.699904 -5.565998 3.182554 1.237655 5.923172 17.287953 -19.495026 39.820516 40.816728 -43.238055 28.093736 -11.690534 -20.557070 5.350646 4.329209 4.717784 -5.610525 7.435914 -19.416301 -52.527341 -19.331239 -59.129873 -64.796277 11.630564 -17.393615 13.367102 -10.820675 -1.031153 0.554349 -10.535259 15.633858 -2.129124 3.426518 -15.187050 8.988594 -0.000000 -0.000000 0.000000 16.849413 -21.741109 -5.893446 5.658773 18.504816 -1.371537 11.052043 -8.201623 -2.741624 0.000000 0.000000 0.000000
278.381413 105.562741 246.706392 156.826160 0.565820 -2.008919 4.024800 5.673820 2.143337 1.760285 2.540169 0.902095 1.760285 2.540169 0.902095 1.316249 1.907748 0.669146 4.314365 11.346677 -1.873120 9.107753 -14.823867 -5.484599 3.252983 1.287541 5.978653 17.735061 -19.703973 39.576926 40.358558 -43.219679 28.302417 -11.783679 -20.476374 5.341505 4.363358 4.693198 -5.639848 7.842475 -19.243184 -52.600122 -19.320422 -59.176221 -65.023934 11.653891 -17.395105 13.557288 -9.966695 -0.224047 0.827394 -11.634189 15.638161 -2.103504 3.172302 -15.652449 9.408159 0.000000 -0.000000 0.000000 18.500506 -20.575350 -6.798359 7.152131 14.604725 -1.367584 11.276932 -8.252287 -2.819108 0.000000 0.000000 0.000000
279.134724 105.420807 245.680001 157.499004 0.455230 -2.318802 4.164815 5.685775 2.258162 1.820932 2.547139 0.951235 1.820915 2.547129 0.951235 1.361486 1.913197 0.705722 4.311427 11.288243 -1.776545 9.065890 -14.941739 -5.304254 3.314804 1.400234 6.056775 18.147588 -19.966322 39.410323 39.904098 -43.168693 28.459649 -11.837852 -20.399840 5.339774 4.337393 4.705421 -5.660752 8.322962 -19.190495 -52.685775 -19.363131 -59.167520 -65.164510 11.719615 -17.374868 13.735645 -9.253763 0.749245 1.154517 -12.484071 15.602033 -2.065315 2.816253 -16.057444 9.798140 -0.006495 0.116125 0.342569 19.962682 -19.459707 -7.612567 9.153825 11.677133 -1.444732 11.569185 -8.271581 -2.857654 0.000000 0.000000 0.000000
279.890177 105.258834 244.588730 158.154162 0.265712 -2.662375 4.297432 5.709766 2.365485 1.878328 2.559427 0.997006 1.878306 2.559414 0.997004 1.404306 1.922640 0.739764 4.293431 11.238924 -1.643556 8.978114 -15.047440 -5.046441 3.371876 1.547216 6.156159 18.514865 -20.261757 39.318224 39.443485 -43.079019 28.598035 -11.870310 -20.325573 5.340147 4.285932 4.734160 -5.667121 8.845531 -19.206108 -52.780750 -19.440914 -59.126808 -65.235589 11.833420 -17.338625 13.898332 -8.622420 1.794912 1.520235 -13.160234 15.632742 -2.026241 2.422920 -16.432606 10.192744 -0.009935 0.231511 0.685429 21.269631 -18.389143 -8.313010 11.348883 9.581807 -1.575117 11.731893 -8.293154 -2.675145 -0.000000 0.000000 0.000000
280.629963 105.072938 243.448159 158.676317 0.064095 -3.008379 4.459177 5.697260 2.443848 1.949265 2.555451 1.029919 1.949265 2.555451 1.029919 1.457402 1.919902 0.764165 4.283886 11.220474 -1.487080 8.893132 -15.097142 -4.743936 3.411888 1.682370 6.268872 18.793260 -20.542421 39.358014 38.980418 -42.914249 28.755370 -11.902010 -20.262053 5.343942 4.283871 4.723320 -5.639959 9.332448 -19.165773 -52.832080 -19.489074 -59.076416 -65.284160 11.984255 -17.298377 14.020031 -8.092481 2.654920 1.824030 -13.641382 16.122349 -1.999850 2.148091 -16.848131 10.674749 0.000000 0.000000 0.000000 22.040565 -17.534672 -8.688196 12.810053 8.530796 -1.691629 11.093712 -8.316795 -1.466820 0.000000 -0.000000 0.000000
281.356801 104.842137 242.261580 159.036416 -0.122327 -3.385234 4.666568 5.611641 2.506108 2.041120 2.519121 1.055911 2.041134 2.519130 1.055913 1.526263 1.892911 0.783400 4.283563 11.265404 -1.303282 8.808229 -15.030769 -4.386815 3.438766 1.802754 6.371991 18.909248 -20.803795 39.580889 38.507910 -42.648399 28.965063 -11.941120 -20.213071 5.349149 4.392013 4.700453 -5.552452 9.694556 -19.064406 -52.838362 -19.480626 -59.021284 -65.313651 12.170285 -17.256293 14.107322 -7.755534 3.270085 2.058838 -13.821865 17.193207 -1.968075 2.063223 -17.430197 11.222199 0.009210 -0.633556 -2.643184 21.991980 -17.121652 -8.579160 13.419655 9.185152 -1.560155 8.459108 -8.448112 1.770639 0.000000 -0.000000 -0.000000
282.067973 104.587411 241.025699 159.263725 -0.323299 -3.763180 4.902161 5.489901 2.538471 2.146078 2.466621 1.068772 2.146082 2.466624 1.068772 1.605003 1.853754 0.792798 4.292209 11.340714 -1.094408 8.727314 -14.909093 -3.982874 3.448029 1.911814 6.487415 18.931670 -21.056803 39.941865 38.033919 -42.305446 29.190895 -11.978817 -20.174690 5.358036 4.547989 4.634622 -5.431940 10.020443 -18.909503 -52.795158 -19.448597 -58.956002 -65.314426 12.394387 -17.211341 14.154320 -7.528210 3.709023 2.209739 -13.799855 18.721355 -1.947072 2.106949 -18.058407 11.843513 0.027538 -1.593789 -6.320397 21.427850 -16.933281 -8.191237 13.344448 10.880400 -1.233350 5.150961 -8.322073 6.119066 0.000000 0.000000 -0.000000
282.737516 104.367815 239.746213 159.329235 -0.560070 -4.021849 5.152800 5.395608 2.479763 2.258619 2.425413 1.040825 2.258619 2.425413 1.040825 1.689584 1.822942 0.771546 4.331072 11.370229 -0.883370 8.707492 -14.869566 -3.592303 3.413338 1.973158 6.672134 19.030729 -21.277358 40.356344 37.584029 -41.923901 29.366477 -12.010459 -20.144080 5.378634 4.639285 4.384045 -5.345358 10.498132 -18.601805 -52.634217 -19.415745 -58.886844 -65.315489 12.653662 -17.172159 14.117055 -7.176046 3.908497 2.157434 -13.859713 20.731861 -2.001080 2.249092 -18.435711 12.664627 0.102358 -3.045617 -9.283072 20.857702 -16.487647 -7.873925 12.061756 11.849488 -1.059826 4.165430 -7.552589 9.286507 0.000000 0.000000 0.000000
283.385105 104.192808 238.391321 159.130515 -0.861152 -4.120872 5.444653 5.341077 2.290445 2.390728 2.400514 0.954048 2.390745 2.400529 0.954059 1.789067 1.804181 0.706069 4.418297 11.323818 -0.659688 8.780914 -14.967895 -3.205243 3.274186 1.935547 7.021196 19.383307 -21.364969 40.789262 37.177097 -41.544702 29.421710 -12.037507 -20.116631 5.410716 4.614662 3.745275 -5.353104 11.259917 -17.987098 -52.175416 -19.322299 -58.783236 -65.426698 12.972116 -17.161983 13.962675 -6.470822 3.914778 1.864421 -14.077798 23.247081 -2.095073 2.430704 -18.687788 13.790486 0.265311 -4.926182 -10.754276 20.733506 -15.413002 -7.826282 8.039409 10.954857 -1.213570 7.697918 -5.796512 10.133428 0.000000 0.000000 0.000000
